<svg xmlns="http://www.w3.org/2000/svg" version="1.0" width="667.000000pt" height="192.000000pt" viewBox="0 0 667.000000 192.000000" preserveAspectRatio="xMidYMid meet">

<g transform="translate(0.000000,192.000000) scale(0.100000,-0.100000)" fill="#303ab2" stroke="none">
<path d="M70 1650 l0 -160 165 0 165 0 0 160 0 160 -165 0 -165 0 0 -160z" fill="#303ab2"/>
<path d="M1870 1640 l0 -160 165 0 165 0 0 160 0 160 -165 0 -165 0 0 -160z" fill="#303ab2"/>
<path d="M3410 1490 l0 -301 -42 25 c-92 53 -162 68 -333 73 -183 6 -249 -5 -368 -60 -55 -26 -84 -47 -119 -88 -81 -96 -110 -175 -128 -355 -12 -118 -1 -307 21 -375 60 -181 163 -280 334 -324 163 -42 469 -42 589 0 141 49 204 94 269 193 80 119 77 90 77 844 l0 668 -150 0 -150 0 0 -300z m-119 -458 c61 -30 106 -94 120 -169 6 -33 9 -130 7 -223 -3 -145 -7 -171 -27 -217 -45 -102 -93 -124 -284 -131 -173 -6 -245 7 -298 55 -58 53 -72 119 -70 335 1 97 6 189 10 205 22 75 85 140 159 163 15 5 97 8 182 7 138 -2 160 -5 201 -25z" fill="#303ab2"/>
<path d="M1023 1305 c-82 -20 -144 -55 -204 -115 -31 -31 -67 -78 -80 -106 l-24 -49 -3 -473 -3 -472 166 0 165 0 0 448 c0 496 -3 471 67 506 26 13 69 16 248 16 l215 0 0 123 0 124 -137 6 c-196 10 -350 7 -410 -8z" fill="#303ab2"/>
<path d="M5548 1302 c-114 -3 -119 -8 -89 -93 39 -116 136 -282 248 -427 36 -48 71 -92 76 -99 5 -8 -3 -23 -26 -45 -101 -98 -265 -322 -292 -397 -7 -20 -25 -61 -40 -90 -39 -77 -33 -94 37 -104 31 -4 96 -4 145 0 l88 8 34 65 c64 125 140 246 197 313 l57 69 38 -44 c64 -72 137 -183 194 -299 53 -104 57 -109 88 -110 17 0 75 -2 127 -4 117 -5 167 2 175 23 10 27 -138 312 -200 382 -12 14 -41 53 -65 88 -24 34 -46 62 -49 62 -3 0 -25 22 -49 50 l-43 50 77 87 c139 160 303 434 292 491 -2 9 -14 19 -28 23 -44 12 -203 10 -230 -4 -14 -7 -45 -46 -69 -87 -71 -121 -126 -201 -179 -260 l-49 -54 -51 69 c-29 39 -80 125 -113 193 -34 67 -67 126 -73 131 -15 11 -108 17 -228 13z" fill="#303ab2"/>
<path d="M70 690 l0 -600 165 0 165 0 0 600 0 600 -165 0 -165 0 0 -600z" fill="#303ab2"/>
<path d="M1880 685 l0 -605 160 0 160 0 0 605 0 605 -160 0 -160 0 0 -605z" fill="#303ab2"/>
<path d="M4395 1283 c-76 -9 -225 -47 -270 -70 -98 -48 -167 -133 -211 -263 -26 -76 -27 -427 -2 -538 44 -189 140 -289 323 -337 194 -50 551 -32 795 41 133 40 130 36 130 155 0 100 0 101 -22 96 -244 -60 -336 -75 -506 -83 -106 -6 -142 -4 -201 11 -124 30 -199 98 -201 181 l0 30 238 12 c292 15 386 26 482 59 104 35 154 66 199 124 31 38 41 61 47 105 17 140 -19 258 -105 344 -65 65 -208 116 -364 130 -107 9 -269 11 -332 3z m329 -247 c59 -18 111 -53 125 -84 14 -29 14 -88 1 -113 -21 -38 -137 -75 -262 -83 -265 -16 -319 -18 -343 -12 l-28 7 6 71 c7 80 42 164 79 187 42 27 122 39 249 40 82 1 142 -4 173 -13z" fill="#303ab2"/>
</g>
</svg>