<svg xmlns="http://www.w3.org/2000/svg" xmlns:xlink="http://www.w3.org/1999/xlink" width="500" zoomAndPan="magnify" viewBox="0 0 375 374.999991" height="500" preserveAspectRatio="xMidYMid meet" version="1.0"><defs><g/></defs><g fill="#303ab2" fill-opacity="1"><g transform="translate(0.0000045, 230.999985)"><g><path d="M 8.703125 0 L 8.703125 -60.46875 L 24.09375 -60.46875 L 24.09375 0 Z M 8.515625 -72.8125 L 8.515625 -88.203125 L 24.265625 -89.171875 L 24.265625 -73.78125 Z M 8.515625 -72.8125 "/></g></g></g><g fill="#303ab2" fill-opacity="1"><g transform="translate(42.131697, 230.999985)"><g><path d="M 8.703125 0 L 8.703125 -60.46875 L 22.6875 -60.46875 L 23.359375 -54.5 C 28.460938 -59.164062 34.019531 -61.5 40.03125 -61.5 C 42.414062 -61.5 45.050781 -61.234375 47.9375 -60.703125 L 46.65625 -47.75 C 44.019531 -48.351562 41.664062 -48.65625 39.59375 -48.65625 C 35.863281 -48.65625 32.476562 -47.6875 29.4375 -45.75 C 28.0625 -44.894531 26.28125 -43.492188 24.09375 -41.546875 L 24.09375 0 Z M 8.703125 0 "/></g></g></g><g fill="#303ab2" fill-opacity="1"><g transform="translate(100.201133, 230.999985)"><g><path d="M 8.703125 0 L 8.703125 -60.46875 L 24.09375 -60.46875 L 24.09375 0 Z M 8.515625 -72.8125 L 8.515625 -88.203125 L 24.265625 -89.171875 L 24.265625 -73.78125 Z M 8.515625 -72.8125 "/></g></g></g><g fill="#303ab2" fill-opacity="1"><g transform="translate(142.332828, 230.999985)"><g><path d="M 49.09375 -4.203125 C 43.207031 -0.222656 36.71875 1.765625 29.625 1.765625 C 20.90625 1.765625 14.640625 -0.769531 10.828125 -5.84375 C 7.585938 -10.132812 5.96875 -18.328125 5.96875 -30.421875 C 5.96875 -37.921875 6.515625 -43.613281 7.609375 -47.5 C 10.398438 -57.320312 17.898438 -62.234375 30.109375 -62.234375 C 36.191406 -62.234375 41.867188 -60.648438 47.140625 -57.484375 L 47.140625 -90.875 L 62.53125 -91.90625 L 62.53125 0 L 49.875 0 Z M 47.140625 -15.875 L 47.140625 -44.703125 C 43.085938 -47.867188 38.628906 -49.453125 33.765625 -49.453125 C 28.410156 -49.453125 24.941406 -47.664062 23.359375 -44.09375 C 22.222656 -41.425781 21.65625 -36.785156 21.65625 -30.171875 C 21.65625 -22.503906 22.425781 -17.414062 23.96875 -14.90625 C 25.59375 -12.3125 28.773438 -11.015625 33.515625 -11.015625 C 37.203125 -11.015625 40.347656 -11.742188 42.953125 -13.203125 C 44.085938 -13.804688 45.484375 -14.695312 47.140625 -15.875 Z M 47.140625 -15.875 "/></g></g></g><g fill="#303ab2" fill-opacity="1"><g transform="translate(222.909747, 230.999985)"><g><path d="M 62.78125 -26.21875 L 21.234375 -26.21875 C 21.234375 -25.894531 21.253906 -25.671875 21.296875 -25.546875 C 21.535156 -22.304688 21.835938 -20.140625 22.203125 -19.046875 C 23.253906 -15.671875 25.300781 -13.378906 28.34375 -12.171875 C 30.738281 -11.191406 34.328125 -10.703125 39.109375 -10.703125 C 45.804688 -10.703125 52.597656 -11.695312 59.484375 -13.6875 L 61.140625 -1.15625 C 53.921875 0.789062 46.007812 1.765625 37.40625 1.765625 C 24.1875 1.765625 15.410156 -1.191406 11.078125 -7.109375 C 7.671875 -11.773438 5.96875 -19.257812 5.96875 -29.5625 C 5.96875 -41.925781 8.195312 -50.460938 12.65625 -55.171875 C 17.15625 -59.921875 24.554688 -62.296875 34.859375 -62.296875 C 42.679688 -62.296875 48.617188 -60.9375 52.671875 -58.21875 C 57.335938 -55.09375 60.359375 -50.328125 61.734375 -43.921875 C 62.429688 -40.554688 62.78125 -35.726562 62.78125 -29.4375 C 62.78125 -28.914062 62.78125 -27.84375 62.78125 -26.21875 Z M 47.9375 -36.625 C 47.6875 -40.394531 47.054688 -43.253906 46.046875 -45.203125 C 44.265625 -48.609375 40.515625 -50.3125 34.796875 -50.3125 C 29.234375 -50.3125 25.519531 -48.726562 23.65625 -45.5625 C 22.40625 -43.445312 21.632812 -40.46875 21.34375 -36.625 Z M 47.9375 -36.625 "/></g></g></g><g fill="#303ab2" fill-opacity="1"><g transform="translate(300.749272, 230.999985)"><g><path d="M 22.75 -31.203125 L 1.09375 -60.46875 L 18.921875 -60.46875 L 32.609375 -41.96875 L 45.6875 -60.46875 L 63.5 -60.46875 L 40.140625 -31.6875 L 63.5625 0 L 45.75 0 L 30.171875 -21.109375 L 15.203125 0 L -2.609375 0 Z M 22.75 -31.203125 "/></g></g></g></svg>